<?xml version="1.0" encoding="UTF-8" standalone="no"?>
<!DOCTYPE svg PUBLIC "-//W3C//DTD SVG 1.1//EN"
 "http://www.w3.org/Graphics/SVG/1.1/DTD/svg11.dtd">
<!-- Generated by graphviz version 2.43.0 (0)
 -->
<!-- Title: %3 Pages: 1 -->
<svg width="612pt" height="332pt"
 viewBox="0.00 0.00 612.00 332.00" xmlns="http://www.w3.org/2000/svg" xmlns:xlink="http://www.w3.org/1999/xlink">
<g id="graph0" class="graph" transform="scale(1 1) rotate(0) translate(4 328)">
<title>%3</title>
<!-- 268a44e6d48366cce095e598a74c55e01193a317 -->
<g id="node1" class="node">
<title>268a44e6d48366cce095e598a74c55e01193a317</title>
<path fill="#fcf594" stroke="#a0a0a0" d="M477.5,-108C477.5,-108 129.5,-108 129.5,-108 123.5,-108 117.5,-102 117.5,-96 117.5,-96 117.5,-84 117.5,-84 117.5,-78 123.5,-72 129.5,-72 129.5,-72 477.5,-72 477.5,-72 483.5,-72 489.5,-78 489.5,-84 489.5,-84 489.5,-96 489.5,-96 489.5,-102 483.5,-108 477.5,-108"/>
<text text-anchor="start" x="125.5" y="-93.8" font-family="Courier,monospace" font-size="14.00" fill="#333355">268a44:</text>
<text text-anchor="start" x="183.5" y="-93.8" font-family="Courier,monospace" font-weight="bold" font-size="14.00" fill="#333355">add &#39;cust.foo&#39; to package &#39;cust.plm&#39;</text>
<text text-anchor="start" x="183.5" y="-79.8" font-family="Courier,monospace" font-size="14.00" fill="#333355"> John Doe 2017&#45;08&#45;05 10:14:53</text>
</g>
<!-- b0800b73d5a3ceef2b202b76204b820b50254c54 -->
<g id="node2" class="node">
<title>b0800b73d5a3ceef2b202b76204b820b50254c54</title>
<path fill="#fcf594" stroke="#a0a0a0" d="M352,-180C352,-180 79,-180 79,-180 73,-180 67,-174 67,-168 67,-168 67,-156 67,-156 67,-150 73,-144 79,-144 79,-144 352,-144 352,-144 358,-144 364,-150 364,-156 364,-156 364,-168 364,-168 364,-174 358,-180 352,-180"/>
<text text-anchor="start" x="91.5" y="-165.8" font-family="Courier,monospace" font-size="14.00" fill="#333355">b0800b:</text>
<text text-anchor="start" x="149.5" y="-165.8" font-family="Courier,monospace" font-weight="bold" font-size="14.00" fill="#333355">configured &#39;foo&#39; schema</text>
<text text-anchor="start" x="75" y="-151.8" font-family="Courier,monospace" font-size="14.00" fill="#333355"> Markus Heiser 2017&#45;08&#45;05 10:18:02</text>
</g>
<!-- 268a44e6d48366cce095e598a74c55e01193a317&#45;&gt;b0800b73d5a3ceef2b202b76204b820b50254c54 -->
<g id="edge1" class="edge">
<title>268a44e6d48366cce095e598a74c55e01193a317&#45;&gt;b0800b73d5a3ceef2b202b76204b820b50254c54</title>
<path fill="none" stroke="#cc9900" stroke-width="2" d="M240.75,-108.17C240.75,-108.17 240.75,-133.59 240.75,-133.59"/>
<polygon fill="#cc9900" stroke="#cc9900" stroke-width="2" points="237.25,-133.59 240.75,-143.59 244.25,-133.59 237.25,-133.59"/>
</g>
<!-- dc63770a97314e24a0759afc9cbb610af3e99d19 -->
<g id="node5" class="node">
<title>dc63770a97314e24a0759afc9cbb610af3e99d19</title>
<path fill="#fcf594" stroke="#a0a0a0" d="M592,-252C592,-252 327,-252 327,-252 321,-252 315,-246 315,-240 315,-240 315,-228 315,-228 315,-222 321,-216 327,-216 327,-216 592,-216 592,-216 598,-216 604,-222 604,-228 604,-228 604,-240 604,-240 604,-246 598,-252 592,-252"/>
<text text-anchor="start" x="323" y="-237.8" font-family="Courier,monospace" font-size="14.00" fill="#333355">dc6377:</text>
<text text-anchor="start" x="381" y="-237.8" font-family="Courier,monospace" font-weight="bold" font-size="14.00" fill="#333355">add hotfix for issue #4711</text>
<text text-anchor="start" x="339.5" y="-223.8" font-family="Courier,monospace" font-size="14.00" fill="#333355"> John Doe 2017&#45;08&#45;05 10:20:50</text>
</g>
<!-- 268a44e6d48366cce095e598a74c55e01193a317&#45;&gt;dc63770a97314e24a0759afc9cbb610af3e99d19 -->
<g id="edge5" class="edge">
<title>268a44e6d48366cce095e598a74c55e01193a317&#45;&gt;dc63770a97314e24a0759afc9cbb610af3e99d19</title>
<path fill="none" stroke="#cc9900" stroke-width="2" d="M426.75,-108.24C426.75,-108.24 426.75,-205.91 426.75,-205.91"/>
<polygon fill="#cc9900" stroke="#cc9900" stroke-width="2" points="423.25,-205.91 426.75,-215.91 430.25,-205.91 423.25,-205.91"/>
</g>
<!-- 3e3838e41f54591dc0d845199850b30b8b85cad1 -->
<g id="node4" class="node">
<title>3e3838e41f54591dc0d845199850b30b8b85cad1</title>
<path fill="#fcf594" stroke="#a0a0a0" d="M285,-252C285,-252 12,-252 12,-252 6,-252 0,-246 0,-240 0,-240 0,-228 0,-228 0,-222 6,-216 12,-216 12,-216 285,-216 285,-216 291,-216 297,-222 297,-228 297,-228 297,-240 297,-240 297,-246 291,-252 285,-252"/>
<text text-anchor="start" x="24.5" y="-237.8" font-family="Courier,monospace" font-size="14.00" fill="#333355">3e3838:</text>
<text text-anchor="start" x="82.5" y="-237.8" font-family="Courier,monospace" font-weight="bold" font-size="14.00" fill="#333355">implemented class &#39;Foo&#39;</text>
<text text-anchor="start" x="8" y="-223.8" font-family="Courier,monospace" font-size="14.00" fill="#333355"> Markus Heiser 2017&#45;08&#45;05 10:19:09</text>
</g>
<!-- b0800b73d5a3ceef2b202b76204b820b50254c54&#45;&gt;3e3838e41f54591dc0d845199850b30b8b85cad1 -->
<g id="edge6" class="edge">
<title>b0800b73d5a3ceef2b202b76204b820b50254c54&#45;&gt;3e3838e41f54591dc0d845199850b30b8b85cad1</title>
<path fill="none" stroke="#cc9900" stroke-width="2" d="M182,-180.17C182,-180.17 182,-205.59 182,-205.59"/>
<polygon fill="#cc9900" stroke="#cc9900" stroke-width="2" points="178.5,-205.59 182,-215.59 185.5,-205.59 178.5,-205.59"/>
<text text-anchor="middle" x="114" y="-183.28" font-family="Courier,monospace" font-size="12.00" fill="#ffffff"> &#160;cdbpkg commit &#160;&#160;</text>
</g>
<!-- 8b75578b776e601fb40f43e291360022b9a1fd01 -->
<g id="node3" class="node">
<title>8b75578b776e601fb40f43e291360022b9a1fd01</title>
<path fill="#fcf594" stroke="#a0a0a0" d="M419.5,-36C419.5,-36 187.5,-36 187.5,-36 181.5,-36 175.5,-30 175.5,-24 175.5,-24 175.5,-12 175.5,-12 175.5,-6 181.5,0 187.5,0 187.5,0 419.5,0 419.5,0 425.5,0 431.5,-6 431.5,-12 431.5,-12 431.5,-24 431.5,-24 431.5,-30 425.5,-36 419.5,-36"/>
<text text-anchor="start" x="208" y="-21.8" font-family="Courier,monospace" font-size="14.00" fill="#333355">8b7557:</text>
<text text-anchor="start" x="266" y="-21.8" font-family="Courier,monospace" font-weight="bold" font-size="14.00" fill="#333355">cust.plm initial</text>
<text text-anchor="start" x="183.5" y="-7.8" font-family="Courier,monospace" font-size="14.00" fill="#333355"> John Doe 2017&#45;08&#45;05 10:14:15</text>
</g>
<!-- 8b75578b776e601fb40f43e291360022b9a1fd01&#45;&gt;268a44e6d48366cce095e598a74c55e01193a317 -->
<g id="edge2" class="edge">
<title>8b75578b776e601fb40f43e291360022b9a1fd01&#45;&gt;268a44e6d48366cce095e598a74c55e01193a317</title>
<path fill="none" stroke="#cc9900" stroke-width="2" d="M303.5,-36.17C303.5,-36.17 303.5,-61.59 303.5,-61.59"/>
<polygon fill="#cc9900" stroke="#cc9900" stroke-width="2" points="300,-61.59 303.5,-71.59 307,-61.59 300,-61.59"/>
</g>
<!-- refs/heads/foo -->
<g id="node7" class="node">
<title>refs/heads/foo</title>
<path fill="#eeeeee" stroke="#a0a0a0" d="M248,-324C248,-324 49,-324 49,-324 43,-324 37,-318 37,-312 37,-312 37,-300 37,-300 37,-294 43,-288 49,-288 49,-288 248,-288 248,-288 254,-288 260,-294 260,-300 260,-300 260,-312 260,-312 260,-318 254,-324 248,-324"/>
<text text-anchor="start" x="107" y="-309.8" font-family="Courier,monospace" font-weight="bold" font-size="14.00" fill="#333355">branch foo</text>
<text text-anchor="start" x="45" y="-295.8" font-family="Courier,monospace" font-weight="bold" font-size="14.00" fill="#333355">Spiegel DB beim Lieferant</text>
</g>
<!-- 3e3838e41f54591dc0d845199850b30b8b85cad1&#45;&gt;refs/heads/foo -->
<g id="edge3" class="edge">
<title>3e3838e41f54591dc0d845199850b30b8b85cad1&#45;&gt;refs/heads/foo</title>
<path fill="none" stroke="#cc9900" stroke-width="2" d="M148.5,-262.17C148.5,-262.17 148.5,-287.59 148.5,-287.59"/>
<polygon fill="#cc9900" stroke="#cc9900" stroke-width="2" points="152,-262.17 148.5,-252.17 145,-262.17 152,-262.17"/>
<text text-anchor="middle" x="77" y="-265.28" font-family="Courier,monospace" font-size="12.00" fill="#ffffff">cdbpkg commit &#160;&#160;&#160;&#160;&#160;</text>
</g>
<!-- refs/heads/master -->
<g id="node6" class="node">
<title>refs/heads/master</title>
<path fill="#c7ffc7" stroke="#a0a0a0" d="M579.5,-324C579.5,-324 339.5,-324 339.5,-324 333.5,-324 327.5,-318 327.5,-312 327.5,-312 327.5,-300 327.5,-300 327.5,-294 333.5,-288 339.5,-288 339.5,-288 579.5,-288 579.5,-288 585.5,-288 591.5,-294 591.5,-300 591.5,-300 591.5,-312 591.5,-312 591.5,-318 585.5,-324 579.5,-324"/>
<text text-anchor="start" x="335.5" y="-309.8" font-family="Courier,monospace" font-weight="bold" font-size="14.00" fill="#333355">HEAD (master ist ausgecheckt) </text>
<text text-anchor="start" x="343.5" y="-295.8" font-family="Courier,monospace" font-weight="bold" font-size="14.00" fill="#333355"> Master DB beim Auftraggeber</text>
</g>
<!-- dc63770a97314e24a0759afc9cbb610af3e99d19&#45;&gt;refs/heads/master -->
<g id="edge4" class="edge">
<title>dc63770a97314e24a0759afc9cbb610af3e99d19&#45;&gt;refs/heads/master</title>
<path fill="none" stroke="#cc9900" stroke-width="2" d="M459.5,-262.17C459.5,-262.17 459.5,-287.59 459.5,-287.59"/>
<polygon fill="#cc9900" stroke="#cc9900" stroke-width="2" points="463,-262.17 459.5,-252.17 456,-262.17 463,-262.17"/>
</g>
</g>
</svg>
